<svg id="Layer_1" data-name="Layer 1" xmlns="http://www.w3.org/2000/svg" viewBox="0 0 100 100"><defs><style>.cls-1{fill:#fff;}.cls-2{fill:#414042;}</style></defs><rect class="cls-1" width="100" height="100"/><path class="cls-2" d="M81.16,32.05c-.62,1.57-.62,1.57-4.6,1.63C74,35.5,69.81,41.9,68.15,46.6c.73-.1,1-.67,1.3-1,1.83-1.9,3.54-3.91,5.47-5.7a24,24,0,0,1,12-6.31,13.39,13.39,0,0,1,6.68.24,4.47,4.47,0,0,1,3.12,4.31c0,4.89-2.47,8.47-6.2,11.3a29.36,29.36,0,0,1-10.37,5c-.3.08-.6.19-.9.3,0,0-.07.09-.21.29l1.26.66a33.31,33.31,0,0,1,3.42,1.75,4.68,4.68,0,0,1,.76,7.32,12.15,12.15,0,0,1-8.28,3.58,13.11,13.11,0,0,1-7.79-1.76c-.32-.19-.66-.35-1.24-.64l.12,1.56c1.28,1,3.23.33,4.16,1.81-.18.8-.74.91-1.33,1-1.73.15-3.46.32-5.19.41-2.7.15-5.4.28-8.1.35a3.41,3.41,0,0,1-2.11-.37,1.23,1.23,0,0,1,.12-2.17c1-.43,2.27-.26,3.36-.71-.12-.62-.19-1.23-.35-1.82A34.59,34.59,0,0,1,57,53.09a36.88,36.88,0,0,1,4.77-13.93c1.33-2.34,2.8-4.6,4.26-7l-1.32-1.49a1.86,1.86,0,0,1,2.08-1.63,24.83,24.83,0,0,1,3.86.1c2.42.32,4.83.75,7.22,1.21A5.74,5.74,0,0,1,81.16,32.05Zm7.15,5.1a9,9,0,0,0-1.26.12,15,15,0,0,0-5.33,2.63C77.29,43.14,74,47.41,71.05,52a3.1,3.1,0,0,0-.22.71c3.5.46,8.92-1.67,11.86-4.67C86.25,44.37,88.71,39.83,88.31,37.15ZM75,64.93c1.7-.64,2.52-1.54,2.7-3a3.18,3.18,0,0,0-1.58-3.09,10.94,10.94,0,0,0-2.69-1.45c-2-.64-3.94-1.12-5.92-1.63a4.17,4.17,0,0,0-1.06,0C66.42,59.58,70.26,63.67,75,64.93Z"/><path class="cls-2" d="M9.56,69c-.25-.84-.39-1.45-.6-2A25.21,25.21,0,0,1,7.64,54.78,32.35,32.35,0,0,1,13,40.29c1.91-2.65,4.07-5.13,6.11-7.68.35-.44.72-.86,1.13-1.34l-1.73-1.2a1.13,1.13,0,0,1,.69-1.66,7.08,7.08,0,0,1,2.43-.5c2.18.05,4.37.18,6.55.42,2.55.29,5.09.7,7.63,1.12a16.89,16.89,0,0,1,3,.79,7.79,7.79,0,0,1,1.52,1c-1,1.72-1.1,1.75-6.18,1.57-3.25,1.66-9,9.92-11.49,16.52C20.36,55.53,19.31,61.9,21,68.68c.85,0,1.61,0,2.36,0,2.64-.11,5.28-.27,7.91-.36,4.95-.17,9.91-.21,14.86,0a4.52,4.52,0,0,1,3.32,1.09l-.07,1.38c-1.46.18-2.84.47-4.23.51q-10.14.3-20.28.5c-6.06.13-12.11.22-18.17.31a4.57,4.57,0,0,1-3.31-.84c-.34-1,.21-1.47,1-1.67a22.81,22.81,0,0,1,2.85-.44C8,69.05,8.67,69,9.56,69Z"/></svg>